{
 "cells": [
  {
   "cell_type": "code",
   "execution_count": 1,
   "metadata": {},
   "outputs": [],
   "source": [
    "import os\n",
    "import subprocess"
   ]
  },
  {
   "cell_type": "code",
   "execution_count": 88,
   "metadata": {},
   "outputs": [],
   "source": [
    "#* ------\n",
    "folder = \"/Users/prld/gPrld/Music/Men I Trust/[2023] Live at RBC Echo Beach (ALAC)\"\n",
    "#* ------"
   ]
  },
  {
   "cell_type": "code",
   "execution_count": 89,
   "metadata": {},
   "outputs": [
    {
     "name": "stdout",
     "output_type": "stream",
     "text": [
      ">>>FFMPEG is running\n",
      "\n"
     ]
    },
    {
     "name": "stderr",
     "output_type": "stream",
     "text": [
      "ffmpeg version 6.1.1 Copyright (c) 2000-2023 the FFmpeg developers\n",
      "  built with Apple clang version 15.0.0 (clang-1500.1.0.2.5)\n",
      "  configuration: --prefix=/opt/homebrew/Cellar/ffmpeg/6.1.1_3 --enable-shared --enable-pthreads --enable-version3 --cc=clang --host-cflags= --host-ldflags='-Wl,-ld_classic' --enable-ffplay --enable-gnutls --enable-gpl --enable-libaom --enable-libaribb24 --enable-libbluray --enable-libdav1d --enable-libharfbuzz --enable-libjxl --enable-libmp3lame --enable-libopus --enable-librav1e --enable-librist --enable-librubberband --enable-libsnappy --enable-libsrt --enable-libssh --enable-libsvtav1 --enable-libtesseract --enable-libtheora --enable-libvidstab --enable-libvmaf --enable-libvorbis --enable-libvpx --enable-libwebp --enable-libx264 --enable-libx265 --enable-libxml2 --enable-libxvid --enable-lzma --enable-libfontconfig --enable-libfreetype --enable-frei0r --enable-libass --enable-libopencore-amrnb --enable-libopencore-amrwb --enable-libopenjpeg --enable-libopenvino --enable-libspeex --enable-libsoxr --enable-libzmq --enable-libzimg --disable-libjack --disable-indev=jack --enable-videotoolbox --enable-audiotoolbox --enable-neon\n",
      "  libavutil      58. 29.100 / 58. 29.100\n",
      "  libavcodec     60. 31.102 / 60. 31.102\n",
      "  libavformat    60. 16.100 / 60. 16.100\n",
      "  libavdevice    60.  3.100 / 60.  3.100\n",
      "  libavfilter     9. 12.100 /  9. 12.100\n",
      "  libswscale      7.  5.100 /  7.  5.100\n",
      "  libswresample   4. 12.100 /  4. 12.100\n",
      "  libpostproc    57.  3.100 / 57.  3.100\n",
      "Input #0, flac, from '/Users/prld/gPrld/Music/Men I Trust/[2023] Live at RBC Echo Beach (ALAC)/2. Men I Trust - All Night (Live at RBC Echo Beach)  [USJ5G2333302].flac':\n",
      "  Metadata:\n",
      "    title           : All Night (Live at RBC Echo Beach)\n",
      "    album           : Live at RBC Echo Beach\n",
      "    album_artist    : Khruangbin\n",
      "    artist          : Men I Trust\n",
      "    track           : 2\n",
      "    disc            : 1\n",
      "    totaltracks     : 9\n",
      "    totaldiscs      : 1\n",
      "    date            : 2023-08-11\n",
      "    copyright       : 2023 Dead Oceans, in association with Night Time Stories, Ltd\n",
      "    Rating          : Clean\n",
      "    isrc            : USJ5G2333302\n",
      "    UPC             : 656605163369\n",
      "    Drums           : Eric Maillet\n",
      "    Guitar          : Jessy Caron;Alexis Taillon-Pellerin;Emmanuelle Proulx\n",
      "    Keyboards       : Dragos Chiriac\n",
      "    Music Publisher : Copyright Control\n",
      "    Vocalist        : Emmanuelle Proulx;Jessy Caron\n",
      "    Writer          : Jessy Caron;Emmanuelle Proulx;Dragos Chiriac\n",
      "    lyrics          : [00:05.51]How is everybody?\n",
      "                    : [00:08.96]Thanks for coming out and thanks to Khruangbin for having us\n",
      "                    : [00:12.39]You're guys are gonna have a great night\n",
      "                    : [00:13.65]\n",
      "                    : [00:25.53]You wrap my feet in coloured blanket\n",
      "                    : [00:33.20]So I stay here all night\n",
      "                    : [00:38.45]You keep the one with many moons and star\n",
      "                    : [00:46.06]It's always for my shoulders\n",
      "                    : [00:52.51]So I stay here till waking hour\n",
      "                    : [00:58.29]Tell me how do you make everything feel a little easier, oh\n",
      "                    : [01:05.87]So I stay here till waking hour\n",
      "                    : [01:11.19]And tell me how do you–\n",
      "                    : [01:12.17]\n",
      "                    : [01:30.11]You put a shirt on the ceiling light\n",
      "                    : [01:37.51]So the room won't be too bright\n",
      "                    : [01:43.32]You give me time to be what I can be\n",
      "                    : [01:50.69]You're never ahead, never behind me\n",
      "                    : [01:57.26]So I stay here till waking hour\n",
      "                    : [02:03.03]Tell me how do you make everything feel a little easier, oh\n",
      "                    : [02:10.73]So I stay here till waking hours\n",
      "                    : [02:15.96]And tell me how you do\n",
      "                    : [02:17.21]\n",
      "    REPLAYGAIN_TRACK_GAIN: -7.84\n",
      "    REPLAYGAIN_TRACK_PEAK: 0.901571\n",
      "  Duration: 00:04:16.57, start: 0.000000, bitrate: 2225 kb/s\n",
      "  Stream #0:0: Audio: flac, 96000 Hz, stereo, s32 (24 bit)\n",
      "    Side data:\n",
      "      replaygain: track gain - -7.840000, track peak - 0.000021, album gain - unknown, album peak - unknown, \n",
      "  Stream #0:1: Video: mjpeg (Baseline), yuvj444p(pc, bt470bg/unknown/unknown), 3000x3000 [SAR 118:118 DAR 1:1], 90k tbr, 90k tbn (attached pic)\n",
      "    Metadata:\n",
      "      comment         : Cover (front)\n",
      "Stream mapping:\n",
      "  Stream #0:1 -> #0:0 (copy)\n",
      "  Stream #0:0 -> #0:1 (flac (native) -> alac (native))\n",
      "Press [q] to stop, [?] for help\n",
      "[alac @ 0x1511083f0] encoding as 24 bits-per-sample\n",
      "Output #0, ipod, to '/Users/prld/gPrld/Music/Men I Trust/[2023] Live at RBC Echo Beach (ALAC)/2. Men I Trust - All Night (Live at RBC Echo Beach)  [USJ5G2333302].m4a':\n",
      "  Metadata:\n",
      "    title           : All Night (Live at RBC Echo Beach)\n",
      "    album           : Live at RBC Echo Beach\n",
      "    album_artist    : Khruangbin\n",
      "    artist          : Men I Trust\n",
      "    track           : 2\n",
      "    disc            : 1\n",
      "    totaltracks     : 9\n",
      "    totaldiscs      : 1\n",
      "    date            : 2023-08-11\n",
      "    copyright       : 2023 Dead Oceans, in association with Night Time Stories, Ltd\n",
      "    Rating          : Clean\n",
      "    isrc            : USJ5G2333302\n",
      "    UPC             : 656605163369\n",
      "    Drums           : Eric Maillet\n",
      "    Guitar          : Jessy Caron;Alexis Taillon-Pellerin;Emmanuelle Proulx\n",
      "    Keyboards       : Dragos Chiriac\n",
      "    Music Publisher : Copyright Control\n",
      "    Vocalist        : Emmanuelle Proulx;Jessy Caron\n",
      "    Writer          : Jessy Caron;Emmanuelle Proulx;Dragos Chiriac\n",
      "    lyrics          : [00:05.51]How is everybody?\n",
      "                    : [00:08.96]Thanks for coming out and thanks to Khruangbin for having us\n",
      "                    : [00:12.39]You're guys are gonna have a great night\n",
      "                    : [00:13.65]\n",
      "                    : [00:25.53]You wrap my feet in coloured blanket\n",
      "                    : [00:33.20]So I stay here all night\n",
      "                    : [00:38.45]You keep the one with many moons and star\n",
      "                    : [00:46.06]It's always for my shoulders\n",
      "                    : [00:52.51]So I stay here till waking hour\n",
      "                    : [00:58.29]Tell me how do you make everything feel a little easier, oh\n",
      "                    : [01:05.87]So I stay here till waking hour\n",
      "                    : [01:11.19]And tell me how do you–\n",
      "                    : [01:12.17]\n",
      "                    : [01:30.11]You put a shirt on the ceiling light\n",
      "                    : [01:37.51]So the room won't be too bright\n",
      "                    : [01:43.32]You give me time to be what I can be\n",
      "                    : [01:50.69]You're never ahead, never behind me\n",
      "                    : [01:57.26]So I stay here till waking hour\n",
      "                    : [02:03.03]Tell me how do you make everything feel a little easier, oh\n",
      "                    : [02:10.73]So I stay here till waking hours\n",
      "                    : [02:15.96]And tell me how you do\n",
      "                    : [02:17.21]\n",
      "    REPLAYGAIN_TRACK_GAIN: -7.84\n",
      "    REPLAYGAIN_TRACK_PEAK: 0.901571\n",
      "    encoder         : Lavf60.16.100\n",
      "  Stream #0:0: Video: mjpeg (Baseline), yuvj444p(pc, bt470bg/unknown/unknown), 3000x3000 [SAR 118:118 DAR 1:1], q=2-31, 90k tbr, 90k tbn (attached pic)\n",
      "    Metadata:\n",
      "      comment         : Cover (front)\n",
      "  Stream #0:1: Audio: alac (alac / 0x63616C61), 96000 Hz, stereo, s32p (24 bit), 128 kb/s\n",
      "    Metadata:\n",
      "      encoder         : Lavc60.31.102 alac\n",
      "    Side data:\n",
      "      replaygain: track gain - -7.840000, track peak - 0.000021, album gain - unknown, album peak - unknown, \n",
      "[out#0/ipod @ 0x12fe045a0] video:211kB audio:80766kB subtitle:0kB other streams:0kB global headers:0kB muxing overhead: 0.032723%\n",
      "size=   81003kB time=00:04:16.55 bitrate=2586.5kbits/s speed= 122x    \n",
      "ffmpeg version 6.1.1 Copyright (c) 2000-2023 the FFmpeg developers\n",
      "  built with Apple clang version 15.0.0 (clang-1500.1.0.2.5)\n",
      "  configuration: --prefix=/opt/homebrew/Cellar/ffmpeg/6.1.1_3 --enable-shared --enable-pthreads --enable-version3 --cc=clang --host-cflags= --host-ldflags='-Wl,-ld_classic' --enable-ffplay --enable-gnutls --enable-gpl --enable-libaom --enable-libaribb24 --enable-libbluray --enable-libdav1d --enable-libharfbuzz --enable-libjxl --enable-libmp3lame --enable-libopus --enable-librav1e --enable-librist --enable-librubberband --enable-libsnappy --enable-libsrt --enable-libssh --enable-libsvtav1 --enable-libtesseract --enable-libtheora --enable-libvidstab --enable-libvmaf --enable-libvorbis --enable-libvpx --enable-libwebp --enable-libx264 --enable-libx265 --enable-libxml2 --enable-libxvid --enable-lzma --enable-libfontconfig --enable-libfreetype --enable-frei0r --enable-libass --enable-libopencore-amrnb --enable-libopencore-amrwb --enable-libopenjpeg --enable-libopenvino --enable-libspeex --enable-libsoxr --enable-libzmq --enable-libzimg --disable-libjack --disable-indev=jack --enable-videotoolbox --enable-audiotoolbox --enable-neon\n",
      "  libavutil      58. 29.100 / 58. 29.100\n",
      "  libavcodec     60. 31.102 / 60. 31.102\n",
      "  libavformat    60. 16.100 / 60. 16.100\n",
      "  libavdevice    60.  3.100 / 60.  3.100\n",
      "  libavfilter     9. 12.100 /  9. 12.100\n",
      "  libswscale      7.  5.100 /  7.  5.100\n",
      "  libswresample   4. 12.100 /  4. 12.100\n",
      "  libpostproc    57.  3.100 / 57.  3.100\n",
      "Input #0, flac, from '/Users/prld/gPrld/Music/Men I Trust/[2023] Live at RBC Echo Beach (ALAC)/6. Khruangbin - Dern Kala (Live at RBC Echo Beach)  [USJ5G2333306].flac':\n",
      "  Metadata:\n",
      "    title           : Dern Kala (Live at RBC Echo Beach)\n",
      "    album           : Live at RBC Echo Beach\n",
      "    album_artist    : Khruangbin\n",
      "    artist          : Khruangbin\n",
      "    track           : 6\n",
      "    disc            : 1\n",
      "    totaltracks     : 9\n",
      "    totaldiscs      : 1\n",
      "    date            : 2023-08-11\n",
      "    copyright       : 2023 Dead Oceans, in association with Night Time Stories, Ltd\n",
      "    Rating          : Clean\n",
      "    isrc            : USJ5G2333306\n",
      "    UPC             : 656605163369\n",
      "    Bass            : Laura Lee\n",
      "    Drums           : DJ\n",
      "    Guitar          : Marko\n",
      "    Keyboards       : DJ\n",
      "    Music Publisher : Barn Hug Ink, Inc.\n",
      "    Vocalist        : Laura Lee;Marko;DJ\n",
      "    Writer          : Khruangbin\n",
      "    REPLAYGAIN_TRACK_GAIN: -7.84\n",
      "    REPLAYGAIN_TRACK_PEAK: 0.901571\n",
      "  Duration: 00:03:34.17, start: 0.000000, bitrate: 2106 kb/s\n",
      "  Stream #0:0: Audio: flac, 96000 Hz, stereo, s32 (24 bit)\n",
      "    Side data:\n",
      "      replaygain: track gain - -7.840000, track peak - 0.000021, album gain - unknown, album peak - unknown, \n",
      "  Stream #0:1: Video: mjpeg (Baseline), yuvj444p(pc, bt470bg/unknown/unknown), 3000x3000 [SAR 118:118 DAR 1:1], 90k tbr, 90k tbn (attached pic)\n",
      "    Metadata:\n",
      "      comment         : Cover (front)\n",
      "Stream mapping:\n",
      "  Stream #0:1 -> #0:0 (copy)\n",
      "  Stream #0:0 -> #0:1 (flac (native) -> alac (native))\n",
      "Press [q] to stop, [?] for help\n",
      "[alac @ 0x157f09750] encoding as 24 bits-per-sample\n",
      "Output #0, ipod, to '/Users/prld/gPrld/Music/Men I Trust/[2023] Live at RBC Echo Beach (ALAC)/6. Khruangbin - Dern Kala (Live at RBC Echo Beach)  [USJ5G2333306].m4a':\n",
      "  Metadata:\n",
      "    title           : Dern Kala (Live at RBC Echo Beach)\n",
      "    album           : Live at RBC Echo Beach\n",
      "    album_artist    : Khruangbin\n",
      "    artist          : Khruangbin\n",
      "    track           : 6\n",
      "    disc            : 1\n",
      "    totaltracks     : 9\n",
      "    totaldiscs      : 1\n",
      "    date            : 2023-08-11\n",
      "    copyright       : 2023 Dead Oceans, in association with Night Time Stories, Ltd\n",
      "    Rating          : Clean\n",
      "    isrc            : USJ5G2333306\n",
      "    UPC             : 656605163369\n",
      "    Bass            : Laura Lee\n",
      "    Drums           : DJ\n",
      "    Guitar          : Marko\n",
      "    Keyboards       : DJ\n",
      "    Music Publisher : Barn Hug Ink, Inc.\n",
      "    Vocalist        : Laura Lee;Marko;DJ\n",
      "    Writer          : Khruangbin\n",
      "    REPLAYGAIN_TRACK_GAIN: -7.84\n",
      "    REPLAYGAIN_TRACK_PEAK: 0.901571\n",
      "    encoder         : Lavf60.16.100\n",
      "  Stream #0:0: Video: mjpeg (Baseline), yuvj444p(pc, bt470bg/unknown/unknown), 3000x3000 [SAR 118:118 DAR 1:1], q=2-31, 90k tbr, 90k tbn (attached pic)\n",
      "    Metadata:\n",
      "      comment         : Cover (front)\n",
      "  Stream #0:1: Audio: alac (alac / 0x63616C61), 96000 Hz, stereo, s32p (24 bit), 128 kb/s\n",
      "    Metadata:\n",
      "      encoder         : Lavc60.31.102 alac\n",
      "    Side data:\n",
      "      replaygain: track gain - -7.840000, track peak - 0.000021, album gain - unknown, album peak - unknown, \n",
      "size=       0kB time=00:00:00.00 bitrate=N/A speed=   0x    \r"
     ]
    },
    {
     "name": "stdout",
     "output_type": "stream",
     "text": [
      ">>>FFMPEG is running\n",
      "\n"
     ]
    },
    {
     "name": "stderr",
     "output_type": "stream",
     "text": [
      "[out#0/ipod @ 0x157f07880] video:211kB audio:72161kB subtitle:0kB other streams:0kB global headers:0kB muxing overhead: 0.029705%\n",
      "size=   72394kB time=00:03:34.14 bitrate=2769.4kbits/s speed= 119x    \n",
      "ffmpeg version 6.1.1 Copyright (c) 2000-2023 the FFmpeg developers\n",
      "  built with Apple clang version 15.0.0 (clang-1500.1.0.2.5)\n",
      "  configuration: --prefix=/opt/homebrew/Cellar/ffmpeg/6.1.1_3 --enable-shared --enable-pthreads --enable-version3 --cc=clang --host-cflags= --host-ldflags='-Wl,-ld_classic' --enable-ffplay --enable-gnutls --enable-gpl --enable-libaom --enable-libaribb24 --enable-libbluray --enable-libdav1d --enable-libharfbuzz --enable-libjxl --enable-libmp3lame --enable-libopus --enable-librav1e --enable-librist --enable-librubberband --enable-libsnappy --enable-libsrt --enable-libssh --enable-libsvtav1 --enable-libtesseract --enable-libtheora --enable-libvidstab --enable-libvmaf --enable-libvorbis --enable-libvpx --enable-libwebp --enable-libx264 --enable-libx265 --enable-libxml2 --enable-libxvid --enable-lzma --enable-libfontconfig --enable-libfreetype --enable-frei0r --enable-libass --enable-libopencore-amrnb --enable-libopencore-amrwb --enable-libopenjpeg --enable-libopenvino --enable-libspeex --enable-libsoxr --enable-libzmq --enable-libzimg --disable-libjack --disable-indev=jack --enable-videotoolbox --enable-audiotoolbox --enable-neon\n",
      "  libavutil      58. 29.100 / 58. 29.100\n",
      "  libavcodec     60. 31.102 / 60. 31.102\n",
      "  libavformat    60. 16.100 / 60. 16.100\n",
      "  libavdevice    60.  3.100 / 60.  3.100\n",
      "  libavfilter     9. 12.100 /  9. 12.100\n",
      "  libswscale      7.  5.100 /  7.  5.100\n",
      "  libswresample   4. 12.100 /  4. 12.100\n",
      "  libpostproc    57.  3.100 / 57.  3.100\n",
      "Input #0, flac, from '/Users/prld/gPrld/Music/Men I Trust/[2023] Live at RBC Echo Beach (ALAC)/9. Khruangbin - White Gloves (Live at RBC Echo Beach)  [USJ5G2333309].flac':\n",
      "  Metadata:\n",
      "    title           : White Gloves (Live at RBC Echo Beach)\n",
      "    album           : Live at RBC Echo Beach\n",
      "    album_artist    : Khruangbin\n",
      "    artist          : Khruangbin\n",
      "    track           : 9\n",
      "    disc            : 1\n",
      "    totaltracks     : 9\n",
      "    totaldiscs      : 1\n",
      "    date            : 2023-08-11\n",
      "    copyright       : 2023 Dead Oceans, in association with Night Time Stories, Ltd\n",
      "    Rating          : Clean\n",
      "    isrc            : USJ5G2333309\n",
      "    UPC             : 656605163369\n",
      "    Bass            : Laura Lee\n",
      "    Drums           : DJ\n",
      "    Guitar          : Marko\n",
      "    Keyboards       : DJ\n",
      "    Music Publisher : Warp Music Limited\n",
      "    Vocalist        : Laura Lee;Marko;DJ\n",
      "    Writer          : Laura Lee Ochoa;Mark Stefan Speer\n",
      "    lyrics          : [00:26.33]She was a queen\n",
      "                    : [00:31.65]She had a house\n",
      "                    : [00:36.64]She was a fighter\n",
      "                    : [00:41.90]She was a queen\n",
      "                    : [00:47.16]Had a good dude\n",
      "                    : [00:51.97]Brought me a rabbit\n",
      "                    : [00:57.11]She was a queen\n",
      "                    : [01:02.18]Wearing white gloves\n",
      "                    : [01:12.06]But she kept 'em clean\n",
      "                    : [01:17.82]Classy lady\n",
      "                    : [01:22.53]But she wasn't quiet\n",
      "                    : [01:27.51]She was a queen\n",
      "                    : [01:34.07](Oh)\n",
      "                    : [01:40.79]\n",
      "                    : [01:57.89]One day she was gone\n",
      "                    : [02:02.89]She died in a fight\n",
      "                    : [02:08.09]'Cause she was a fighter\n",
      "                    : [02:13.12]But she was a queen\n",
      "                    : [02:19.63](Oh)\n",
      "                    : [02:28.48]She was a queen\n",
      "                    : [02:35.15](Oh)\n",
      "                    : [02:43.64]She was a queen\n",
      "                    : [02:51.20](Oh)\n",
      "                    : [02:54.69]\n",
      "    REPLAYGAIN_TRACK_GAIN: -7.84\n",
      "    REPLAYGAIN_TRACK_PEAK: 0.901571\n",
      "  Duration: 00:03:18.67, start: 0.000000, bitrate: 1872 kb/s\n",
      "  Stream #0:0: Audio: flac, 96000 Hz, stereo, s32 (24 bit)\n",
      "    Side data:\n",
      "      replaygain: track gain - -7.840000, track peak - 0.000021, album gain - unknown, album peak - unknown, \n",
      "  Stream #0:1: Video: mjpeg (Baseline), yuvj444p(pc, bt470bg/unknown/unknown), 3000x3000 [SAR 118:118 DAR 1:1], 90k tbr, 90k tbn (attached pic)\n",
      "    Metadata:\n",
      "      comment         : Cover (front)\n",
      "Stream mapping:\n",
      "  Stream #0:1 -> #0:0 (copy)\n",
      "  Stream #0:0 -> #0:1 (flac (native) -> alac (native))\n",
      "Press [q] to stop, [?] for help\n",
      "[alac @ 0x12fe18670] encoding as 24 bits-per-sample\n",
      "Output #0, ipod, to '/Users/prld/gPrld/Music/Men I Trust/[2023] Live at RBC Echo Beach (ALAC)/9. Khruangbin - White Gloves (Live at RBC Echo Beach)  [USJ5G2333309].m4a':\n",
      "  Metadata:\n",
      "    title           : White Gloves (Live at RBC Echo Beach)\n",
      "    album           : Live at RBC Echo Beach\n",
      "    album_artist    : Khruangbin\n",
      "    artist          : Khruangbin\n",
      "    track           : 9\n",
      "    disc            : 1\n",
      "    totaltracks     : 9\n",
      "    totaldiscs      : 1\n",
      "    date            : 2023-08-11\n",
      "    copyright       : 2023 Dead Oceans, in association with Night Time Stories, Ltd\n",
      "    Rating          : Clean\n",
      "    isrc            : USJ5G2333309\n",
      "    UPC             : 656605163369\n",
      "    Bass            : Laura Lee\n",
      "    Drums           : DJ\n",
      "    Guitar          : Marko\n",
      "    Keyboards       : DJ\n",
      "    Music Publisher : Warp Music Limited\n",
      "    Vocalist        : Laura Lee;Marko;DJ\n",
      "    Writer          : Laura Lee Ochoa;Mark Stefan Speer\n",
      "    lyrics          : [00:26.33]She was a queen\n",
      "                    : [00:31.65]She had a house\n",
      "                    : [00:36.64]She was a fighter\n",
      "                    : [00:41.90]She was a queen\n",
      "                    : [00:47.16]Had a good dude\n",
      "                    : [00:51.97]Brought me a rabbit\n",
      "                    : [00:57.11]She was a queen\n",
      "                    : [01:02.18]Wearing white gloves\n",
      "                    : [01:12.06]But she kept 'em clean\n",
      "                    : [01:17.82]Classy lady\n",
      "                    : [01:22.53]But she wasn't quiet\n",
      "                    : [01:27.51]She was a queen\n",
      "                    : [01:34.07](Oh)\n",
      "                    : [01:40.79]\n",
      "                    : [01:57.89]One day she was gone\n",
      "                    : [02:02.89]She died in a fight\n",
      "                    : [02:08.09]'Cause she was a fighter\n",
      "                    : [02:13.12]But she was a queen\n",
      "                    : [02:19.63](Oh)\n",
      "                    : [02:28.48]She was a queen\n",
      "                    : [02:35.15](Oh)\n",
      "                    : [02:43.64]She was a queen\n",
      "                    : [02:51.20](Oh)\n",
      "                    : [02:54.69]\n",
      "    REPLAYGAIN_TRACK_GAIN: -7.84\n",
      "    REPLAYGAIN_TRACK_PEAK: 0.901571\n",
      "    encoder         : Lavf60.16.100\n",
      "  Stream #0:0: Video: mjpeg (Baseline), yuvj444p(pc, bt470bg/unknown/unknown), 3000x3000 [SAR 118:118 DAR 1:1], q=2-31, 90k tbr, 90k tbn (attached pic)\n",
      "    Metadata:\n",
      "      comment         : Cover (front)\n",
      "  Stream #0:1: Audio: alac (alac / 0x63616C61), 96000 Hz, stereo, s32p (24 bit), 128 kb/s\n",
      "    Metadata:\n",
      "      encoder         : Lavc60.31.102 alac\n",
      "    Side data:\n",
      "      replaygain: track gain - -7.840000, track peak - 0.000021, album gain - unknown, album peak - unknown, \n",
      "size=       0kB time=00:00:00.00 bitrate=N/A speed=   0x    \r"
     ]
    },
    {
     "name": "stdout",
     "output_type": "stream",
     "text": [
      ">>>FFMPEG is running\n",
      "\n"
     ]
    },
    {
     "name": "stderr",
     "output_type": "stream",
     "text": [
      "[out#0/ipod @ 0x12fe15910] video:211kB audio:62696kB subtitle:0kB other streams:0kB global headers:0kB muxing overhead: 0.032822%\n",
      "size=   62928kB time=00:03:18.65 bitrate=2595.0kbits/s speed= 123x    \n",
      "ffmpeg version 6.1.1 Copyright (c) 2000-2023 the FFmpeg developers\n",
      "  built with Apple clang version 15.0.0 (clang-1500.1.0.2.5)\n",
      "  configuration: --prefix=/opt/homebrew/Cellar/ffmpeg/6.1.1_3 --enable-shared --enable-pthreads --enable-version3 --cc=clang --host-cflags= --host-ldflags='-Wl,-ld_classic' --enable-ffplay --enable-gnutls --enable-gpl --enable-libaom --enable-libaribb24 --enable-libbluray --enable-libdav1d --enable-libharfbuzz --enable-libjxl --enable-libmp3lame --enable-libopus --enable-librav1e --enable-librist --enable-librubberband --enable-libsnappy --enable-libsrt --enable-libssh --enable-libsvtav1 --enable-libtesseract --enable-libtheora --enable-libvidstab --enable-libvmaf --enable-libvorbis --enable-libvpx --enable-libwebp --enable-libx264 --enable-libx265 --enable-libxml2 --enable-libxvid --enable-lzma --enable-libfontconfig --enable-libfreetype --enable-frei0r --enable-libass --enable-libopencore-amrnb --enable-libopencore-amrwb --enable-libopenjpeg --enable-libopenvino --enable-libspeex --enable-libsoxr --enable-libzmq --enable-libzimg --disable-libjack --disable-indev=jack --enable-videotoolbox --enable-audiotoolbox --enable-neon\n",
      "  libavutil      58. 29.100 / 58. 29.100\n",
      "  libavcodec     60. 31.102 / 60. 31.102\n",
      "  libavformat    60. 16.100 / 60. 16.100\n",
      "  libavdevice    60.  3.100 / 60.  3.100\n",
      "  libavfilter     9. 12.100 /  9. 12.100\n",
      "  libswscale      7.  5.100 /  7.  5.100\n",
      "  libswresample   4. 12.100 /  4. 12.100\n",
      "  libpostproc    57.  3.100 / 57.  3.100\n",
      "Input #0, flac, from '/Users/prld/gPrld/Music/Men I Trust/[2023] Live at RBC Echo Beach (ALAC)/5. Men I Trust - Say Can You Hear (Live at RBC Echo Beach)  [USJ5G2333305].flac':\n",
      "  Metadata:\n",
      "    title           : Say Can You Hear (Live at RBC Echo Beach)\n",
      "    album           : Live at RBC Echo Beach\n",
      "    album_artist    : Khruangbin\n",
      "    artist          : Men I Trust\n",
      "    track           : 5\n",
      "    disc            : 1\n",
      "    totaltracks     : 9\n",
      "    totaldiscs      : 1\n",
      "    date            : 2023-08-11\n",
      "    copyright       : 2023 Dead Oceans, in association with Night Time Stories, Ltd\n",
      "    Rating          : Clean\n",
      "    isrc            : USJ5G2333305\n",
      "    UPC             : 656605163369\n",
      "    Drums           : Eric Maillet\n",
      "    Guitar          : Jessy Caron;Alexis Taillon-Pellerin;Emmanuelle Proulx\n",
      "    Keyboards       : Dragos Chiriac\n",
      "    Music Publisher : Copyright Control\n",
      "    Vocalist        : Emmanuelle Proulx;Jessy Caron\n",
      "    Writer          : Jessy Caron;Emmanuelle Proulx;Dragos Chiriac\n",
      "    lyrics          : [00:05.54]Toronto, this is our last song, we're Men I Trust\n",
      "                    : [00:08.68]Thank you so much\n",
      "                    : [00:09.73]\n",
      "                    : [00:16.04]Say, can you hear?\n",
      "                    : [00:19.12]Is there a reason to your grief?\n",
      "                    : [00:22.28]Where there is pain you see grace\n",
      "                    : [00:25.93]\n",
      "                    : [00:28.52]As if sacrifice was a meaningful end in itself\n",
      "                    : [00:34.52]Your trial and error is error and error\n",
      "                    : [00:41.04]Staying at the end of a hallway\n",
      "                    : [00:44.47]\n",
      "                    : [00:47.66]Dozens of doors you never tried to open\n",
      "                    : [00:51.80]\n",
      "                    : [00:53.87]Narrow vision, you're the scapegoat\n",
      "                    : [00:56.79]\n",
      "                    : [00:59.19]Try to fix things that have never been broken\n",
      "                    : [01:06.86]\n",
      "                    : [01:12.39]You're self-absorbed\n",
      "                    : [01:15.23]Raving about your cryptic ways\n",
      "                    : [01:18.33]Aren't willing to change\n",
      "                    : [01:20.79]Old grudges\n",
      "                    : [01:24.69]Hoping for your turn\n",
      "                    : [01:27.80]All the basement stories you hearded\n",
      "                    : [01:30.91]Waiting for the world\n",
      "                    : [01:33.27]To bend around you\n",
      "                    : [01:37.44]Staying at the end of a hallway\n",
      "                    : [01:40.58]\n",
      "                    : [01:43.66]Dozens of doors you never tried to open\n",
      "                    : [01:47.92]\n",
      "                    : [01:50.02]Narrow vision, you're the scapegoat\n",
      "                    : [01:52.91]\n",
      "                    : [01:55.06]Try to fix things that have never been broken\n",
      "                    : [02:02.34]\n",
      "                    : [02:26.75]Staying at the end of a hallway\n",
      "                    : [02:30.18](Waiting for the world to bend around you)\n",
      "                    : [02:33.08]Dozens of doors you never tried to open\n",
      "                    : [02:36.26](Waiting for the world to bend around you)\n",
      "                    : [02:39.38]Narrow vision, you're the scapegoat\n",
      "                    : [02:42.27](Waiting for the world to bend around you)\n",
      "                    : [02:44.42]Try to fix things that have never been broken\n",
      "                    : [02:54.52]Waiting for the world to bend around you\n",
      "                    : [02:57.68]\n",
      "                    : [03:00.86]Waiting for the world to bend around you\n",
      "                    : [03:03.71]\n",
      "                    : [03:06.84]Waiting for the world to bend around you\n",
      "                    : [03:10.02]\n",
      "                    : [03:15.59]Thank you\n",
      "                    : [03:16.36]\n",
      "    REPLAYGAIN_TRACK_GAIN: -7.84\n",
      "    REPLAYGAIN_TRACK_PEAK: 0.901571\n",
      "  Duration: 00:03:34.43, start: 0.000000, bitrate: 2354 kb/s\n",
      "  Stream #0:0: Audio: flac, 96000 Hz, stereo, s32 (24 bit)\n",
      "    Side data:\n",
      "      replaygain: track gain - -7.840000, track peak - 0.000021, album gain - unknown, album peak - unknown, \n",
      "  Stream #0:1: Video: mjpeg (Baseline), yuvj444p(pc, bt470bg/unknown/unknown), 3000x3000 [SAR 118:118 DAR 1:1], 90k tbr, 90k tbn (attached pic)\n",
      "    Metadata:\n",
      "      comment         : Cover (front)\n",
      "Stream mapping:\n",
      "  Stream #0:1 -> #0:0 (copy)\n",
      "  Stream #0:0 -> #0:1 (flac (native) -> alac (native))\n",
      "Press [q] to stop, [?] for help\n",
      "[alac @ 0x12d917650] encoding as 24 bits-per-sample\n",
      "Output #0, ipod, to '/Users/prld/gPrld/Music/Men I Trust/[2023] Live at RBC Echo Beach (ALAC)/5. Men I Trust - Say Can You Hear (Live at RBC Echo Beach)  [USJ5G2333305].m4a':\n",
      "  Metadata:\n",
      "    title           : Say Can You Hear (Live at RBC Echo Beach)\n",
      "    album           : Live at RBC Echo Beach\n",
      "    album_artist    : Khruangbin\n",
      "    artist          : Men I Trust\n",
      "    track           : 5\n",
      "    disc            : 1\n",
      "    totaltracks     : 9\n",
      "    totaldiscs      : 1\n",
      "    date            : 2023-08-11\n",
      "    copyright       : 2023 Dead Oceans, in association with Night Time Stories, Ltd\n",
      "    Rating          : Clean\n",
      "    isrc            : USJ5G2333305\n",
      "    UPC             : 656605163369\n",
      "    Drums           : Eric Maillet\n",
      "    Guitar          : Jessy Caron;Alexis Taillon-Pellerin;Emmanuelle Proulx\n",
      "    Keyboards       : Dragos Chiriac\n",
      "    Music Publisher : Copyright Control\n",
      "    Vocalist        : Emmanuelle Proulx;Jessy Caron\n",
      "    Writer          : Jessy Caron;Emmanuelle Proulx;Dragos Chiriac\n",
      "    lyrics          : [00:05.54]Toronto, this is our last song, we're Men I Trust\n",
      "                    : [00:08.68]Thank you so much\n",
      "                    : [00:09.73]\n",
      "                    : [00:16.04]Say, can you hear?\n",
      "                    : [00:19.12]Is there a reason to your grief?\n",
      "                    : [00:22.28]Where there is pain you see grace\n",
      "                    : [00:25.93]\n",
      "                    : [00:28.52]As if sacrifice was a meaningful end in itself\n",
      "                    : [00:34.52]Your trial and error is error and error\n",
      "                    : [00:41.04]Staying at the end of a hallway\n",
      "                    : [00:44.47]\n",
      "                    : [00:47.66]Dozens of doors you never tried to open\n",
      "                    : [00:51.80]\n",
      "                    : [00:53.87]Narrow vision, you're the scapegoat\n",
      "                    : [00:56.79]\n",
      "                    : [00:59.19]Try to fix things that have never been broken\n",
      "                    : [01:06.86]\n",
      "                    : [01:12.39]You're self-absorbed\n",
      "                    : [01:15.23]Raving about your cryptic ways\n",
      "                    : [01:18.33]Aren't willing to change\n",
      "                    : [01:20.79]Old grudges\n",
      "                    : [01:24.69]Hoping for your turn\n",
      "                    : [01:27.80]All the basement stories you hearded\n",
      "                    : [01:30.91]Waiting for the world\n",
      "                    : [01:33.27]To bend around you\n",
      "                    : [01:37.44]Staying at the end of a hallway\n",
      "                    : [01:40.58]\n",
      "                    : [01:43.66]Dozens of doors you never tried to open\n",
      "                    : [01:47.92]\n",
      "                    : [01:50.02]Narrow vision, you're the scapegoat\n",
      "                    : [01:52.91]\n",
      "                    : [01:55.06]Try to fix things that have never been broken\n",
      "                    : [02:02.34]\n",
      "                    : [02:26.75]Staying at the end of a hallway\n",
      "                    : [02:30.18](Waiting for the world to bend around you)\n",
      "                    : [02:33.08]Dozens of doors you never tried to open\n",
      "                    : [02:36.26](Waiting for the world to bend around you)\n",
      "                    : [02:39.38]Narrow vision, you're the scapegoat\n",
      "                    : [02:42.27](Waiting for the world to bend around you)\n",
      "                    : [02:44.42]Try to fix things that have never been broken\n",
      "                    : [02:54.52]Waiting for the world to bend around you\n",
      "                    : [02:57.68]\n",
      "                    : [03:00.86]Waiting for the world to bend around you\n",
      "                    : [03:03.71]\n",
      "                    : [03:06.84]Waiting for the world to bend around you\n",
      "                    : [03:10.02]\n",
      "                    : [03:15.59]Thank you\n",
      "                    : [03:16.36]\n",
      "    REPLAYGAIN_TRACK_GAIN: -7.84\n",
      "    REPLAYGAIN_TRACK_PEAK: 0.901571\n",
      "    encoder         : Lavf60.16.100\n",
      "  Stream #0:0: Video: mjpeg (Baseline), yuvj444p(pc, bt470bg/unknown/unknown), 3000x3000 [SAR 118:118 DAR 1:1], q=2-31, 90k tbr, 90k tbn (attached pic)\n",
      "    Metadata:\n",
      "      comment         : Cover (front)\n",
      "  Stream #0:1: Audio: alac (alac / 0x63616C61), 96000 Hz, stereo, s32p (24 bit), 128 kb/s\n",
      "    Metadata:\n",
      "      encoder         : Lavc60.31.102 alac\n",
      "    Side data:\n",
      "      replaygain: track gain - -7.840000, track peak - 0.000021, album gain - unknown, album peak - unknown, \n",
      "size=       0kB time=00:00:00.00 bitrate=N/A speed=   0x    \r"
     ]
    },
    {
     "name": "stdout",
     "output_type": "stream",
     "text": [
      ">>>FFMPEG is running\n",
      "\n"
     ]
    },
    {
     "name": "stderr",
     "output_type": "stream",
     "text": [
      "[out#0/ipod @ 0x12d915940] video:211kB audio:70601kB subtitle:0kB other streams:0kB global headers:0kB muxing overhead: 0.032867%\n",
      "size=   70835kB time=00:03:34.40 bitrate=2706.5kbits/s speed= 124x    \n",
      "ffmpeg version 6.1.1 Copyright (c) 2000-2023 the FFmpeg developers\n",
      "  built with Apple clang version 15.0.0 (clang-1500.1.0.2.5)\n",
      "  configuration: --prefix=/opt/homebrew/Cellar/ffmpeg/6.1.1_3 --enable-shared --enable-pthreads --enable-version3 --cc=clang --host-cflags= --host-ldflags='-Wl,-ld_classic' --enable-ffplay --enable-gnutls --enable-gpl --enable-libaom --enable-libaribb24 --enable-libbluray --enable-libdav1d --enable-libharfbuzz --enable-libjxl --enable-libmp3lame --enable-libopus --enable-librav1e --enable-librist --enable-librubberband --enable-libsnappy --enable-libsrt --enable-libssh --enable-libsvtav1 --enable-libtesseract --enable-libtheora --enable-libvidstab --enable-libvmaf --enable-libvorbis --enable-libvpx --enable-libwebp --enable-libx264 --enable-libx265 --enable-libxml2 --enable-libxvid --enable-lzma --enable-libfontconfig --enable-libfreetype --enable-frei0r --enable-libass --enable-libopencore-amrnb --enable-libopencore-amrwb --enable-libopenjpeg --enable-libopenvino --enable-libspeex --enable-libsoxr --enable-libzmq --enable-libzimg --disable-libjack --disable-indev=jack --enable-videotoolbox --enable-audiotoolbox --enable-neon\n",
      "  libavutil      58. 29.100 / 58. 29.100\n",
      "  libavcodec     60. 31.102 / 60. 31.102\n",
      "  libavformat    60. 16.100 / 60. 16.100\n",
      "  libavdevice    60.  3.100 / 60.  3.100\n",
      "  libavfilter     9. 12.100 /  9. 12.100\n",
      "  libswscale      7.  5.100 /  7.  5.100\n",
      "  libswresample   4. 12.100 /  4. 12.100\n",
      "  libpostproc    57.  3.100 / 57.  3.100\n",
      "Input #0, flac, from '/Users/prld/gPrld/Music/Men I Trust/[2023] Live at RBC Echo Beach (ALAC)/7. Khruangbin - Lady and Man (Live at RBC Echo Beach)  [USJ5G2333307].flac':\n",
      "  Metadata:\n",
      "    title           : Lady and Man (Live at RBC Echo Beach)\n",
      "    album           : Live at RBC Echo Beach\n",
      "    album_artist    : Khruangbin\n",
      "    artist          : Khruangbin\n",
      "    track           : 7\n",
      "    disc            : 1\n",
      "    totaltracks     : 9\n",
      "    totaldiscs      : 1\n",
      "    date            : 2023-08-11\n",
      "    copyright       : 2023 Dead Oceans, in association with Night Time Stories, Ltd\n",
      "    Rating          : Clean\n",
      "    isrc            : USJ5G2333307\n",
      "    UPC             : 656605163369\n",
      "    Bass            : Laura Lee\n",
      "    Drums           : DJ\n",
      "    Guitar          : Marko\n",
      "    Keyboards       : DJ\n",
      "    Music Publisher : Warp Music Limited\n",
      "    Vocalist        : Laura Lee;Marko;DJ\n",
      "    Writer          : Laura Lee Ochoa;Mark Stefan Speer\n",
      "    lyrics          : [03:02.32]Mama ain't cheap but I could've been had\n",
      "                    : [03:08.41]I went to college\n",
      "                    : [03:13.86]I could've been a doctor\n",
      "                    : [03:17.07]Could've been a lawyer\n",
      "                    : [03:18.87]\n",
      "                    : [03:23.15]Oh, come on, not that again!\n",
      "                    : [03:26.31]Cheap but I could've been had\n",
      "                    : [03:31.87]I went to college\n",
      "                    : [03:37.12]I could've been a doctor\n",
      "                    : [03:40.29]Could've been a lawyer\n",
      "                    : [03:46.43]Oh, come on, not that again!\n",
      "                    : [03:49.22]You're too angry, you're too fake\n",
      "                    : [03:52.07]You're too reckless, you're too bothered\n",
      "                    : [03:55.19]You're too angry, you're too fake\n",
      "                    : [03:57.80]You're too reckless, you're too bothered\n",
      "                    : [04:00.81]You're too angry, you're too fake\n",
      "                    : [04:03.82]You're too reckless, you're too bothered\n",
      "                    : [04:06.82]You're too angry, you're too fake\n",
      "                    : [04:09.60]You're too reckless, you're too bothered\n",
      "                    : [04:12.79]\n",
      "    REPLAYGAIN_TRACK_GAIN: -7.84\n",
      "    REPLAYGAIN_TRACK_PEAK: 0.901571\n",
      "  Duration: 00:07:19.71, start: 0.000000, bitrate: 2118 kb/s\n",
      "  Stream #0:0: Audio: flac, 96000 Hz, stereo, s32 (24 bit)\n",
      "    Side data:\n",
      "      replaygain: track gain - -7.840000, track peak - 0.000021, album gain - unknown, album peak - unknown, \n",
      "  Stream #0:1: Video: mjpeg (Baseline), yuvj444p(pc, bt470bg/unknown/unknown), 3000x3000 [SAR 118:118 DAR 1:1], 90k tbr, 90k tbn (attached pic)\n",
      "    Metadata:\n",
      "      comment         : Cover (front)\n",
      "Stream mapping:\n",
      "  Stream #0:1 -> #0:0 (copy)\n",
      "  Stream #0:0 -> #0:1 (flac (native) -> alac (native))\n",
      "Press [q] to stop, [?] for help\n",
      "[alac @ 0x132611b30] encoding as 24 bits-per-sample\n",
      "Output #0, ipod, to '/Users/prld/gPrld/Music/Men I Trust/[2023] Live at RBC Echo Beach (ALAC)/7. Khruangbin - Lady and Man (Live at RBC Echo Beach)  [USJ5G2333307].m4a':\n",
      "  Metadata:\n",
      "    title           : Lady and Man (Live at RBC Echo Beach)\n",
      "    album           : Live at RBC Echo Beach\n",
      "    album_artist    : Khruangbin\n",
      "    artist          : Khruangbin\n",
      "    track           : 7\n",
      "    disc            : 1\n",
      "    totaltracks     : 9\n",
      "    totaldiscs      : 1\n",
      "    date            : 2023-08-11\n",
      "    copyright       : 2023 Dead Oceans, in association with Night Time Stories, Ltd\n",
      "    Rating          : Clean\n",
      "    isrc            : USJ5G2333307\n",
      "    UPC             : 656605163369\n",
      "    Bass            : Laura Lee\n",
      "    Drums           : DJ\n",
      "    Guitar          : Marko\n",
      "    Keyboards       : DJ\n",
      "    Music Publisher : Warp Music Limited\n",
      "    Vocalist        : Laura Lee;Marko;DJ\n",
      "    Writer          : Laura Lee Ochoa;Mark Stefan Speer\n",
      "    lyrics          : [03:02.32]Mama ain't cheap but I could've been had\n",
      "                    : [03:08.41]I went to college\n",
      "                    : [03:13.86]I could've been a doctor\n",
      "                    : [03:17.07]Could've been a lawyer\n",
      "                    : [03:18.87]\n",
      "                    : [03:23.15]Oh, come on, not that again!\n",
      "                    : [03:26.31]Cheap but I could've been had\n",
      "                    : [03:31.87]I went to college\n",
      "                    : [03:37.12]I could've been a doctor\n",
      "                    : [03:40.29]Could've been a lawyer\n",
      "                    : [03:46.43]Oh, come on, not that again!\n",
      "                    : [03:49.22]You're too angry, you're too fake\n",
      "                    : [03:52.07]You're too reckless, you're too bothered\n",
      "                    : [03:55.19]You're too angry, you're too fake\n",
      "                    : [03:57.80]You're too reckless, you're too bothered\n",
      "                    : [04:00.81]You're too angry, you're too fake\n",
      "                    : [04:03.82]You're too reckless, you're too bothered\n",
      "                    : [04:06.82]You're too angry, you're too fake\n",
      "                    : [04:09.60]You're too reckless, you're too bothered\n",
      "                    : [04:12.79]\n",
      "    REPLAYGAIN_TRACK_GAIN: -7.84\n",
      "    REPLAYGAIN_TRACK_PEAK: 0.901571\n",
      "    encoder         : Lavf60.16.100\n",
      "  Stream #0:0: Video: mjpeg (Baseline), yuvj444p(pc, bt470bg/unknown/unknown), 3000x3000 [SAR 118:118 DAR 1:1], q=2-31, 90k tbr, 90k tbn (attached pic)\n",
      "    Metadata:\n",
      "      comment         : Cover (front)\n",
      "  Stream #0:1: Audio: alac (alac / 0x63616C61), 96000 Hz, stereo, s32p (24 bit), 128 kb/s\n",
      "    Metadata:\n",
      "      encoder         : Lavc60.31.102 alac\n",
      "    Side data:\n",
      "      replaygain: track gain - -7.840000, track peak - 0.000021, album gain - unknown, album peak - unknown, \n",
      "size=       0kB time=00:00:00.00 bitrate=N/A speed=   0x    \r"
     ]
    },
    {
     "name": "stdout",
     "output_type": "stream",
     "text": [
      ">>>FFMPEG is running\n",
      "\n"
     ]
    },
    {
     "name": "stderr",
     "output_type": "stream",
     "text": [
      "[out#0/ipod @ 0x132610720] video:211kB audio:149339kB subtitle:0kB other streams:0kB global headers:0kB muxing overhead: 0.029170%\n",
      "size=  149594kB time=00:07:19.68 bitrate=2787.2kbits/s speed= 127x    \n",
      "ffmpeg version 6.1.1 Copyright (c) 2000-2023 the FFmpeg developers\n",
      "  built with Apple clang version 15.0.0 (clang-1500.1.0.2.5)\n",
      "  configuration: --prefix=/opt/homebrew/Cellar/ffmpeg/6.1.1_3 --enable-shared --enable-pthreads --enable-version3 --cc=clang --host-cflags= --host-ldflags='-Wl,-ld_classic' --enable-ffplay --enable-gnutls --enable-gpl --enable-libaom --enable-libaribb24 --enable-libbluray --enable-libdav1d --enable-libharfbuzz --enable-libjxl --enable-libmp3lame --enable-libopus --enable-librav1e --enable-librist --enable-librubberband --enable-libsnappy --enable-libsrt --enable-libssh --enable-libsvtav1 --enable-libtesseract --enable-libtheora --enable-libvidstab --enable-libvmaf --enable-libvorbis --enable-libvpx --enable-libwebp --enable-libx264 --enable-libx265 --enable-libxml2 --enable-libxvid --enable-lzma --enable-libfontconfig --enable-libfreetype --enable-frei0r --enable-libass --enable-libopencore-amrnb --enable-libopencore-amrwb --enable-libopenjpeg --enable-libopenvino --enable-libspeex --enable-libsoxr --enable-libzmq --enable-libzimg --disable-libjack --disable-indev=jack --enable-videotoolbox --enable-audiotoolbox --enable-neon\n",
      "  libavutil      58. 29.100 / 58. 29.100\n",
      "  libavcodec     60. 31.102 / 60. 31.102\n",
      "  libavformat    60. 16.100 / 60. 16.100\n",
      "  libavdevice    60.  3.100 / 60.  3.100\n",
      "  libavfilter     9. 12.100 /  9. 12.100\n",
      "  libswscale      7.  5.100 /  7.  5.100\n",
      "  libswresample   4. 12.100 /  4. 12.100\n",
      "  libpostproc    57.  3.100 / 57.  3.100\n",
      "Input #0, flac, from '/Users/prld/gPrld/Music/Men I Trust/[2023] Live at RBC Echo Beach (ALAC)/4. Men I Trust - Show Me How (Live at RBC Echo Beach)  [USJ5G2333304].flac':\n",
      "  Metadata:\n",
      "    title           : Show Me How (Live at RBC Echo Beach)\n",
      "    album           : Live at RBC Echo Beach\n",
      "    album_artist    : Khruangbin\n",
      "    artist          : Men I Trust\n",
      "    track           : 4\n",
      "    disc            : 1\n",
      "    totaltracks     : 9\n",
      "    totaldiscs      : 1\n",
      "    date            : 2023-08-11\n",
      "    copyright       : 2023 Dead Oceans, in association with Night Time Stories, Ltd\n",
      "    Rating          : Clean\n",
      "    isrc            : USJ5G2333304\n",
      "    UPC             : 656605163369\n",
      "    Drums           : Eric Maillet\n",
      "    Guitar          : Jessy Caron;Alexis Taillon-Pellerin;Emmanuelle Proulx\n",
      "    Keyboards       : Dragos Chiriac\n",
      "    Music Publisher : Copyright Control\n",
      "    Vocalist        : Emmanuelle Proulx;Jessy Caron\n",
      "    Writer          : Jessy Caron;Emmanuelle Proulx;Dragos Chiriac\n",
      "    lyrics          : [00:31.74]Show me how you care\n",
      "                    : [00:36.47]\n",
      "                    : [00:43.06]Tell me how you were loved before\n",
      "                    : [00:50.30]\n",
      "                    : [00:54.21]Show me how you smile\n",
      "                    : [00:58.89]\n",
      "                    : [01:05.77]Tell me why your hands are cold\n",
      "                    : [01:13.78]Show me how\n",
      "                    : [01:16.61]I'm turning around, I'm having visions of you\n",
      "                    : [01:21.33]\n",
      "                    : [01:23.68]But then I understand\n",
      "                    : [01:28.11]The friend I'm dreaming of is far away\n",
      "                    : [01:33.96]But I'm here, I'm here\n",
      "                    : [01:38.59]\n",
      "                    : [01:50.74]Show me how you're proud\n",
      "                    : [01:55.25]\n",
      "                    : [02:02.06]Tell me how you reach the moon\n",
      "                    : [02:09.72]\n",
      "                    : [02:12.58]My thoughts err away tonight\n",
      "                    : [02:17.51]\n",
      "                    : [02:23.88]My heart fell to love again\n",
      "                    : [02:32.24]Show me how\n",
      "                    : [02:34.88]I'm turning around, I'm having visions of you\n",
      "                    : [02:41.88]But then I understand\n",
      "                    : [02:46.38]The friend I'm dreaming of is far away\n",
      "                    : [02:53.13]And doesn't feel my love, mm-hm\n",
      "                    : [03:00.24]But I do\n",
      "                    : [03:02.34]\n",
      "                    : [03:06.58]I do\n",
      "                    : [03:08.17]\n",
      "    REPLAYGAIN_TRACK_GAIN: -7.84\n",
      "    REPLAYGAIN_TRACK_PEAK: 0.901571\n",
      "  Duration: 00:03:33.12, start: 0.000000, bitrate: 2121 kb/s\n",
      "  Stream #0:0: Audio: flac, 96000 Hz, stereo, s32 (24 bit)\n",
      "    Side data:\n",
      "      replaygain: track gain - -7.840000, track peak - 0.000021, album gain - unknown, album peak - unknown, \n",
      "  Stream #0:1: Video: mjpeg (Baseline), yuvj444p(pc, bt470bg/unknown/unknown), 3000x3000 [SAR 118:118 DAR 1:1], 90k tbr, 90k tbn (attached pic)\n",
      "    Metadata:\n",
      "      comment         : Cover (front)\n",
      "Stream mapping:\n",
      "  Stream #0:1 -> #0:0 (copy)\n",
      "  Stream #0:0 -> #0:1 (flac (native) -> alac (native))\n",
      "Press [q] to stop, [?] for help\n",
      "[alac @ 0x13e612600] encoding as 24 bits-per-sample\n",
      "Output #0, ipod, to '/Users/prld/gPrld/Music/Men I Trust/[2023] Live at RBC Echo Beach (ALAC)/4. Men I Trust - Show Me How (Live at RBC Echo Beach)  [USJ5G2333304].m4a':\n",
      "  Metadata:\n",
      "    title           : Show Me How (Live at RBC Echo Beach)\n",
      "    album           : Live at RBC Echo Beach\n",
      "    album_artist    : Khruangbin\n",
      "    artist          : Men I Trust\n",
      "    track           : 4\n",
      "    disc            : 1\n",
      "    totaltracks     : 9\n",
      "    totaldiscs      : 1\n",
      "    date            : 2023-08-11\n",
      "    copyright       : 2023 Dead Oceans, in association with Night Time Stories, Ltd\n",
      "    Rating          : Clean\n",
      "    isrc            : USJ5G2333304\n",
      "    UPC             : 656605163369\n",
      "    Drums           : Eric Maillet\n",
      "    Guitar          : Jessy Caron;Alexis Taillon-Pellerin;Emmanuelle Proulx\n",
      "    Keyboards       : Dragos Chiriac\n",
      "    Music Publisher : Copyright Control\n",
      "    Vocalist        : Emmanuelle Proulx;Jessy Caron\n",
      "    Writer          : Jessy Caron;Emmanuelle Proulx;Dragos Chiriac\n",
      "    lyrics          : [00:31.74]Show me how you care\n",
      "                    : [00:36.47]\n",
      "                    : [00:43.06]Tell me how you were loved before\n",
      "                    : [00:50.30]\n",
      "                    : [00:54.21]Show me how you smile\n",
      "                    : [00:58.89]\n",
      "                    : [01:05.77]Tell me why your hands are cold\n",
      "                    : [01:13.78]Show me how\n",
      "                    : [01:16.61]I'm turning around, I'm having visions of you\n",
      "                    : [01:21.33]\n",
      "                    : [01:23.68]But then I understand\n",
      "                    : [01:28.11]The friend I'm dreaming of is far away\n",
      "                    : [01:33.96]But I'm here, I'm here\n",
      "                    : [01:38.59]\n",
      "                    : [01:50.74]Show me how you're proud\n",
      "                    : [01:55.25]\n",
      "                    : [02:02.06]Tell me how you reach the moon\n",
      "                    : [02:09.72]\n",
      "                    : [02:12.58]My thoughts err away tonight\n",
      "                    : [02:17.51]\n",
      "                    : [02:23.88]My heart fell to love again\n",
      "                    : [02:32.24]Show me how\n",
      "                    : [02:34.88]I'm turning around, I'm having visions of you\n",
      "                    : [02:41.88]But then I understand\n",
      "                    : [02:46.38]The friend I'm dreaming of is far away\n",
      "                    : [02:53.13]And doesn't feel my love, mm-hm\n",
      "                    : [03:00.24]But I do\n",
      "                    : [03:02.34]\n",
      "                    : [03:06.58]I do\n",
      "                    : [03:08.17]\n",
      "    REPLAYGAIN_TRACK_GAIN: -7.84\n",
      "    REPLAYGAIN_TRACK_PEAK: 0.901571\n",
      "    encoder         : Lavf60.16.100\n",
      "  Stream #0:0: Video: mjpeg (Baseline), yuvj444p(pc, bt470bg/unknown/unknown), 3000x3000 [SAR 118:118 DAR 1:1], q=2-31, 90k tbr, 90k tbn (attached pic)\n",
      "    Metadata:\n",
      "      comment         : Cover (front)\n",
      "  Stream #0:1: Audio: alac (alac / 0x63616C61), 96000 Hz, stereo, s32p (24 bit), 128 kb/s\n",
      "    Metadata:\n",
      "      encoder         : Lavc60.31.102 alac\n",
      "    Side data:\n",
      "      replaygain: track gain - -7.840000, track peak - 0.000021, album gain - unknown, album peak - unknown, \n",
      "size=       0kB time=00:00:00.00 bitrate=N/A speed=   0x    \r"
     ]
    },
    {
     "name": "stdout",
     "output_type": "stream",
     "text": [
      ">>>FFMPEG is running\n",
      "\n"
     ]
    },
    {
     "name": "stderr",
     "output_type": "stream",
     "text": [
      "[out#0/ipod @ 0x13e60ffe0] video:211kB audio:66722kB subtitle:0kB other streams:0kB global headers:0kB muxing overhead: 0.033351%\n",
      "size=   66956kB time=00:03:33.12 bitrate=2573.7kbits/s speed= 124x    \n",
      "ffmpeg version 6.1.1 Copyright (c) 2000-2023 the FFmpeg developers\n",
      "  built with Apple clang version 15.0.0 (clang-1500.1.0.2.5)\n",
      "  configuration: --prefix=/opt/homebrew/Cellar/ffmpeg/6.1.1_3 --enable-shared --enable-pthreads --enable-version3 --cc=clang --host-cflags= --host-ldflags='-Wl,-ld_classic' --enable-ffplay --enable-gnutls --enable-gpl --enable-libaom --enable-libaribb24 --enable-libbluray --enable-libdav1d --enable-libharfbuzz --enable-libjxl --enable-libmp3lame --enable-libopus --enable-librav1e --enable-librist --enable-librubberband --enable-libsnappy --enable-libsrt --enable-libssh --enable-libsvtav1 --enable-libtesseract --enable-libtheora --enable-libvidstab --enable-libvmaf --enable-libvorbis --enable-libvpx --enable-libwebp --enable-libx264 --enable-libx265 --enable-libxml2 --enable-libxvid --enable-lzma --enable-libfontconfig --enable-libfreetype --enable-frei0r --enable-libass --enable-libopencore-amrnb --enable-libopencore-amrwb --enable-libopenjpeg --enable-libopenvino --enable-libspeex --enable-libsoxr --enable-libzmq --enable-libzimg --disable-libjack --disable-indev=jack --enable-videotoolbox --enable-audiotoolbox --enable-neon\n",
      "  libavutil      58. 29.100 / 58. 29.100\n",
      "  libavcodec     60. 31.102 / 60. 31.102\n",
      "  libavformat    60. 16.100 / 60. 16.100\n",
      "  libavdevice    60.  3.100 / 60.  3.100\n",
      "  libavfilter     9. 12.100 /  9. 12.100\n",
      "  libswscale      7.  5.100 /  7.  5.100\n",
      "  libswresample   4. 12.100 /  4. 12.100\n",
      "  libpostproc    57.  3.100 / 57.  3.100\n",
      "Input #0, flac, from '/Users/prld/gPrld/Music/Men I Trust/[2023] Live at RBC Echo Beach (ALAC)/1. Men I Trust - Sugar (Live at RBC Echo Beach)  [USJ5G2333301].flac':\n",
      "  Metadata:\n",
      "    title           : Sugar (Live at RBC Echo Beach)\n",
      "    album           : Live at RBC Echo Beach\n",
      "    album_artist    : Khruangbin\n",
      "    artist          : Men I Trust\n",
      "    track           : 1\n",
      "    disc            : 1\n",
      "    totaltracks     : 9\n",
      "    totaldiscs      : 1\n",
      "    date            : 2023-08-11\n",
      "    copyright       : 2023 Dead Oceans, in association with Night Time Stories, Ltd\n",
      "    Rating          : Clean\n",
      "    isrc            : USJ5G2333301\n",
      "    UPC             : 656605163369\n",
      "    Drums           : Eric Maillet\n",
      "    Guitar          : Jessy Caron;Alexis Taillon-Pellerin;Emmanuelle Proulx\n",
      "    Keyboards       : Dragos Chiriac\n",
      "    Music Publisher : Copyright Control\n",
      "    Vocalist        : Emmanuelle Proulx;Jessy Caron\n",
      "    Writer          : Jessy Caron;Emmanuelle Proulx;Dragos Chiriac\n",
      "    lyrics          : [00:16.93]I ran out of made-up consolation\n",
      "                    : [00:21.18]I've been waiting forever\n",
      "                    : [00:24.86]How can you call me with such conviction?\n",
      "                    : [00:29.63]\"Sugar cane, sugar\"\n",
      "                    : [00:33.51]You get yourself out of situation\n",
      "                    : [00:37.93]Won't you leave me, won't you?\n",
      "                    : [00:41.99]'Cause I don't have the time for indignation\n",
      "                    : [00:46.38]\"Sugar cane, sugar\"\n",
      "                    : [00:50.75]It goes on and on and on\n",
      "                    : [00:54.65]And it goes on and on and on again\n",
      "                    : [00:59.12]It goes on, on and on, on and on\n",
      "                    : [01:03.05]And it goes on and on and on again\n",
      "                    : [01:07.51]Can you find just one thing you cherish?\n",
      "                    : [01:11.78]Would you hold me just like you mean it?\n",
      "                    : [01:15.67]Am I the one with much imagination?\n",
      "                    : [01:20.19]Give me one reason\n",
      "                    : [01:24.35]As it gets older\n",
      "                    : [01:28.89]You keep pulling and pushing away\n",
      "                    : [01:32.22]But you never promised me\n",
      "                    : [01:36.95]To be wiser or better\n",
      "                    : [01:41.16]It goes on and on and on\n",
      "                    : [01:45.11]And it goes on and on and on again\n",
      "                    : [01:49.66]It goes on, on and on, on and on\n",
      "                    : [01:53.55]And it goes on and on and on again\n",
      "                    : [01:58.24]It goes on and on and on\n",
      "                    : [02:01.98]And it goes on and on and on again\n",
      "                    : [02:06.44]It goes on, on and on, on and on\n",
      "                    : [02:10.09]And it goes on and on and on again\n",
      "                    : [02:14.32]\n",
      "                    : [02:18.23]Sugar\n",
      "                    : [02:22.44]My sugar cane\n",
      "                    : [02:26.59]Sugar\n",
      "                    : [02:28.38]\n",
      "                    : [02:34.96]Sugar\n",
      "                    : [02:39.14]My sugar cane\n",
      "                    : [02:43.33]Sugar\n",
      "                    : [02:44.98]\n",
      "    REPLAYGAIN_TRACK_GAIN: -7.84\n",
      "    REPLAYGAIN_TRACK_PEAK: 0.901571\n",
      "  Duration: 00:03:04.94, start: 0.000000, bitrate: 2407 kb/s\n",
      "  Stream #0:0: Audio: flac, 96000 Hz, stereo, s32 (24 bit)\n",
      "    Side data:\n",
      "      replaygain: track gain - -7.840000, track peak - 0.000021, album gain - unknown, album peak - unknown, \n",
      "  Stream #0:1: Video: mjpeg (Baseline), yuvj444p(pc, bt470bg/unknown/unknown), 3000x3000 [SAR 118:118 DAR 1:1], 90k tbr, 90k tbn (attached pic)\n",
      "    Metadata:\n",
      "      comment         : Cover (front)\n",
      "Stream mapping:\n",
      "  Stream #0:1 -> #0:0 (copy)\n",
      "  Stream #0:0 -> #0:1 (flac (native) -> alac (native))\n",
      "Press [q] to stop, [?] for help\n",
      "[alac @ 0x12c206770] encoding as 24 bits-per-sample\n",
      "Output #0, ipod, to '/Users/prld/gPrld/Music/Men I Trust/[2023] Live at RBC Echo Beach (ALAC)/1. Men I Trust - Sugar (Live at RBC Echo Beach)  [USJ5G2333301].m4a':\n",
      "  Metadata:\n",
      "    title           : Sugar (Live at RBC Echo Beach)\n",
      "    album           : Live at RBC Echo Beach\n",
      "    album_artist    : Khruangbin\n",
      "    artist          : Men I Trust\n",
      "    track           : 1\n",
      "    disc            : 1\n",
      "    totaltracks     : 9\n",
      "    totaldiscs      : 1\n",
      "    date            : 2023-08-11\n",
      "    copyright       : 2023 Dead Oceans, in association with Night Time Stories, Ltd\n",
      "    Rating          : Clean\n",
      "    isrc            : USJ5G2333301\n",
      "    UPC             : 656605163369\n",
      "    Drums           : Eric Maillet\n",
      "    Guitar          : Jessy Caron;Alexis Taillon-Pellerin;Emmanuelle Proulx\n",
      "    Keyboards       : Dragos Chiriac\n",
      "    Music Publisher : Copyright Control\n",
      "    Vocalist        : Emmanuelle Proulx;Jessy Caron\n",
      "    Writer          : Jessy Caron;Emmanuelle Proulx;Dragos Chiriac\n",
      "    lyrics          : [00:16.93]I ran out of made-up consolation\n",
      "                    : [00:21.18]I've been waiting forever\n",
      "                    : [00:24.86]How can you call me with such conviction?\n",
      "                    : [00:29.63]\"Sugar cane, sugar\"\n",
      "                    : [00:33.51]You get yourself out of situation\n",
      "                    : [00:37.93]Won't you leave me, won't you?\n",
      "                    : [00:41.99]'Cause I don't have the time for indignation\n",
      "                    : [00:46.38]\"Sugar cane, sugar\"\n",
      "                    : [00:50.75]It goes on and on and on\n",
      "                    : [00:54.65]And it goes on and on and on again\n",
      "                    : [00:59.12]It goes on, on and on, on and on\n",
      "                    : [01:03.05]And it goes on and on and on again\n",
      "                    : [01:07.51]Can you find just one thing you cherish?\n",
      "                    : [01:11.78]Would you hold me just like you mean it?\n",
      "                    : [01:15.67]Am I the one with much imagination?\n",
      "                    : [01:20.19]Give me one reason\n",
      "                    : [01:24.35]As it gets older\n",
      "                    : [01:28.89]You keep pulling and pushing away\n",
      "                    : [01:32.22]But you never promised me\n",
      "                    : [01:36.95]To be wiser or better\n",
      "                    : [01:41.16]It goes on and on and on\n",
      "                    : [01:45.11]And it goes on and on and on again\n",
      "                    : [01:49.66]It goes on, on and on, on and on\n",
      "                    : [01:53.55]And it goes on and on and on again\n",
      "                    : [01:58.24]It goes on and on and on\n",
      "                    : [02:01.98]And it goes on and on and on again\n",
      "                    : [02:06.44]It goes on, on and on, on and on\n",
      "                    : [02:10.09]And it goes on and on and on again\n",
      "                    : [02:14.32]\n",
      "                    : [02:18.23]Sugar\n",
      "                    : [02:22.44]My sugar cane\n",
      "                    : [02:26.59]Sugar\n",
      "                    : [02:28.38]\n",
      "                    : [02:34.96]Sugar\n",
      "                    : [02:39.14]My sugar cane\n",
      "                    : [02:43.33]Sugar\n",
      "                    : [02:44.98]\n",
      "    REPLAYGAIN_TRACK_GAIN: -7.84\n",
      "    REPLAYGAIN_TRACK_PEAK: 0.901571\n",
      "    encoder         : Lavf60.16.100\n",
      "  Stream #0:0: Video: mjpeg (Baseline), yuvj444p(pc, bt470bg/unknown/unknown), 3000x3000 [SAR 118:118 DAR 1:1], q=2-31, 90k tbr, 90k tbn (attached pic)\n",
      "    Metadata:\n",
      "      comment         : Cover (front)\n",
      "  Stream #0:1: Audio: alac (alac / 0x63616C61), 96000 Hz, stereo, s32p (24 bit), 128 kb/s\n",
      "    Metadata:\n",
      "      encoder         : Lavc60.31.102 alac\n",
      "    Side data:\n",
      "      replaygain: track gain - -7.840000, track peak - 0.000021, album gain - unknown, album peak - unknown, \n",
      "size=       0kB time=00:00:00.00 bitrate=N/A speed=   0x    \r"
     ]
    },
    {
     "name": "stdout",
     "output_type": "stream",
     "text": [
      ">>>FFMPEG is running\n",
      "\n"
     ]
    },
    {
     "name": "stderr",
     "output_type": "stream",
     "text": [
      "[out#0/ipod @ 0x12c2049a0] video:211kB audio:61268kB subtitle:0kB other streams:0kB global headers:0kB muxing overhead: 0.032433%\n",
      "size=   61499kB time=00:03:04.91 bitrate=2724.5kbits/s speed= 125x    \n",
      "ffmpeg version 6.1.1 Copyright (c) 2000-2023 the FFmpeg developers\n",
      "  built with Apple clang version 15.0.0 (clang-1500.1.0.2.5)\n",
      "  configuration: --prefix=/opt/homebrew/Cellar/ffmpeg/6.1.1_3 --enable-shared --enable-pthreads --enable-version3 --cc=clang --host-cflags= --host-ldflags='-Wl,-ld_classic' --enable-ffplay --enable-gnutls --enable-gpl --enable-libaom --enable-libaribb24 --enable-libbluray --enable-libdav1d --enable-libharfbuzz --enable-libjxl --enable-libmp3lame --enable-libopus --enable-librav1e --enable-librist --enable-librubberband --enable-libsnappy --enable-libsrt --enable-libssh --enable-libsvtav1 --enable-libtesseract --enable-libtheora --enable-libvidstab --enable-libvmaf --enable-libvorbis --enable-libvpx --enable-libwebp --enable-libx264 --enable-libx265 --enable-libxml2 --enable-libxvid --enable-lzma --enable-libfontconfig --enable-libfreetype --enable-frei0r --enable-libass --enable-libopencore-amrnb --enable-libopencore-amrwb --enable-libopenjpeg --enable-libopenvino --enable-libspeex --enable-libsoxr --enable-libzmq --enable-libzimg --disable-libjack --disable-indev=jack --enable-videotoolbox --enable-audiotoolbox --enable-neon\n",
      "  libavutil      58. 29.100 / 58. 29.100\n",
      "  libavcodec     60. 31.102 / 60. 31.102\n",
      "  libavformat    60. 16.100 / 60. 16.100\n",
      "  libavdevice    60.  3.100 / 60.  3.100\n",
      "  libavfilter     9. 12.100 /  9. 12.100\n",
      "  libswscale      7.  5.100 /  7.  5.100\n",
      "  libswresample   4. 12.100 /  4. 12.100\n",
      "  libpostproc    57.  3.100 / 57.  3.100\n",
      "Input #0, flac, from '/Users/prld/gPrld/Music/Men I Trust/[2023] Live at RBC Echo Beach (ALAC)/8. Khruangbin - Evan Finds the Third Room (Live at RBC Echo Beach)  [USJ5G2333308].flac':\n",
      "  Metadata:\n",
      "    title           : Evan Finds the Third Room (Live at RBC Echo Beach)\n",
      "    album           : Live at RBC Echo Beach\n",
      "    album_artist    : Khruangbin\n",
      "    artist          : Khruangbin\n",
      "    track           : 8\n",
      "    disc            : 1\n",
      "    totaltracks     : 9\n",
      "    totaldiscs      : 1\n",
      "    date            : 2023-08-11\n",
      "    copyright       : 2023 Dead Oceans, in association with Night Time Stories, Ltd\n",
      "    Rating          : Clean\n",
      "    isrc            : USJ5G2333308\n",
      "    UPC             : 656605163369\n",
      "    Bass            : Laura Lee\n",
      "    Drums           : DJ\n",
      "    Guitar          : Marko\n",
      "    Keyboards       : DJ\n",
      "    Music Publisher : Warp Music Limited\n",
      "    Vocalist        : Laura Lee;Marko;DJ\n",
      "    Writer          : Laura Lee Ochoa;Mark Stefan Speer\n",
      "    lyrics          : [00:37.01]Yes\n",
      "                    : [00:41.47]Yes\n",
      "                    : [00:45.92]Yes\n",
      "                    : [00:50.33]Yes\n",
      "                    : [00:54.83]Yes (this is the third room)\n",
      "                    : [00:59.38]Yes (this is the third room)\n",
      "                    : [01:03.85]Yes (this is the third room)\n",
      "                    : [01:08.59]Yes (this is the third room)\n",
      "                    : [01:12.84]Yes (this is the third room)\n",
      "                    : [01:17.29]Yes (this is the third room)\n",
      "                    : [01:21.77]Yes (this is the third room)\n",
      "                    : [01:26.28]Yes (this is the third room)\n",
      "                    : [01:30.18]Jump in the water\n",
      "                    : [01:38.70]Jump in the water\n",
      "                    : [01:48.73]Yes\n",
      "                    : [01:53.27]Yes\n",
      "                    : [01:57.66]Yes\n",
      "                    : [02:02.16]Yes\n",
      "                    : [02:06.31]Yes (this is the third room)\n",
      "                    : [02:10.74]Yes (this is the third room)\n",
      "                    : [02:15.22]Yes (this is the third room)\n",
      "                    : [02:19.77]Yes (this is the third room)\n",
      "                    : [02:24.11]Yes (this is the third room)\n",
      "                    : [02:28.65]Yes (this is the third room)\n",
      "                    : [02:38.08]Yes (this is the third room)\n",
      "                    : [02:41.53]Jump in the water\n",
      "                    : [02:45.99]Jump in the water\n",
      "                    : [02:50.25]Jump in the water\n",
      "                    : [02:54.96]Jump in the water\n",
      "                    : [02:59.81]Blackout\n",
      "                    : [03:13.38]Yes\n",
      "                    : [03:17.87]Press one\n",
      "                    : [03:22.29]Press two\n",
      "                    : [03:27.01]Press three\n",
      "                    : [03:31.40]Press one\n",
      "                    : [03:35.92]Press two\n",
      "                    : [03:40.39]Press three\n",
      "                    : [03:46.36]Hello, Toronto\n",
      "                    : [03:51.92]Yes, this is the third room\n",
      "                    : [03:56.03]Please listen, as my menu options have changed\n",
      "                    : [04:05.68]\n",
      "                    : [05:00.25]Yes (this is the third room)\n",
      "                    : [05:04.60]Yes (this is the third room)\n",
      "                    : [05:09.11]Yes (this is the third room)\n",
      "                    : [05:13.55]Yes (this is the third)\n",
      "                    : [05:19.01]\n",
      "    REPLAYGAIN_TRACK_GAIN: -7.84\n",
      "    REPLAYGAIN_TRACK_PEAK: 0.901571\n",
      "  Duration: 00:05:25.30, start: 0.000000, bitrate: 2078 kb/s\n",
      "  Stream #0:0: Audio: flac, 96000 Hz, stereo, s32 (24 bit)\n",
      "    Side data:\n",
      "      replaygain: track gain - -7.840000, track peak - 0.000021, album gain - unknown, album peak - unknown, \n",
      "  Stream #0:1: Video: mjpeg (Baseline), yuvj444p(pc, bt470bg/unknown/unknown), 3000x3000 [SAR 118:118 DAR 1:1], 90k tbr, 90k tbn (attached pic)\n",
      "    Metadata:\n",
      "      comment         : Cover (front)\n",
      "Stream mapping:\n",
      "  Stream #0:1 -> #0:0 (copy)\n",
      "  Stream #0:0 -> #0:1 (flac (native) -> alac (native))\n",
      "Press [q] to stop, [?] for help\n",
      "[alac @ 0x159f0a9e0] encoding as 24 bits-per-sample\n",
      "Output #0, ipod, to '/Users/prld/gPrld/Music/Men I Trust/[2023] Live at RBC Echo Beach (ALAC)/8. Khruangbin - Evan Finds the Third Room (Live at RBC Echo Beach)  [USJ5G2333308].m4a':\n",
      "  Metadata:\n",
      "    title           : Evan Finds the Third Room (Live at RBC Echo Beach)\n",
      "    album           : Live at RBC Echo Beach\n",
      "    album_artist    : Khruangbin\n",
      "    artist          : Khruangbin\n",
      "    track           : 8\n",
      "    disc            : 1\n",
      "    totaltracks     : 9\n",
      "    totaldiscs      : 1\n",
      "    date            : 2023-08-11\n",
      "    copyright       : 2023 Dead Oceans, in association with Night Time Stories, Ltd\n",
      "    Rating          : Clean\n",
      "    isrc            : USJ5G2333308\n",
      "    UPC             : 656605163369\n",
      "    Bass            : Laura Lee\n",
      "    Drums           : DJ\n",
      "    Guitar          : Marko\n",
      "    Keyboards       : DJ\n",
      "    Music Publisher : Warp Music Limited\n",
      "    Vocalist        : Laura Lee;Marko;DJ\n",
      "    Writer          : Laura Lee Ochoa;Mark Stefan Speer\n",
      "    lyrics          : [00:37.01]Yes\n",
      "                    : [00:41.47]Yes\n",
      "                    : [00:45.92]Yes\n",
      "                    : [00:50.33]Yes\n",
      "                    : [00:54.83]Yes (this is the third room)\n",
      "                    : [00:59.38]Yes (this is the third room)\n",
      "                    : [01:03.85]Yes (this is the third room)\n",
      "                    : [01:08.59]Yes (this is the third room)\n",
      "                    : [01:12.84]Yes (this is the third room)\n",
      "                    : [01:17.29]Yes (this is the third room)\n",
      "                    : [01:21.77]Yes (this is the third room)\n",
      "                    : [01:26.28]Yes (this is the third room)\n",
      "                    : [01:30.18]Jump in the water\n",
      "                    : [01:38.70]Jump in the water\n",
      "                    : [01:48.73]Yes\n",
      "                    : [01:53.27]Yes\n",
      "                    : [01:57.66]Yes\n",
      "                    : [02:02.16]Yes\n",
      "                    : [02:06.31]Yes (this is the third room)\n",
      "                    : [02:10.74]Yes (this is the third room)\n",
      "                    : [02:15.22]Yes (this is the third room)\n",
      "                    : [02:19.77]Yes (this is the third room)\n",
      "                    : [02:24.11]Yes (this is the third room)\n",
      "                    : [02:28.65]Yes (this is the third room)\n",
      "                    : [02:38.08]Yes (this is the third room)\n",
      "                    : [02:41.53]Jump in the water\n",
      "                    : [02:45.99]Jump in the water\n",
      "                    : [02:50.25]Jump in the water\n",
      "                    : [02:54.96]Jump in the water\n",
      "                    : [02:59.81]Blackout\n",
      "                    : [03:13.38]Yes\n",
      "                    : [03:17.87]Press one\n",
      "                    : [03:22.29]Press two\n",
      "                    : [03:27.01]Press three\n",
      "                    : [03:31.40]Press one\n",
      "                    : [03:35.92]Press two\n",
      "                    : [03:40.39]Press three\n",
      "                    : [03:46.36]Hello, Toronto\n",
      "                    : [03:51.92]Yes, this is the third room\n",
      "                    : [03:56.03]Please listen, as my menu options have changed\n",
      "                    : [04:05.68]\n",
      "                    : [05:00.25]Yes (this is the third room)\n",
      "                    : [05:04.60]Yes (this is the third room)\n",
      "                    : [05:09.11]Yes (this is the third room)\n",
      "                    : [05:13.55]Yes (this is the third)\n",
      "                    : [05:19.01]\n",
      "    REPLAYGAIN_TRACK_GAIN: -7.84\n",
      "    REPLAYGAIN_TRACK_PEAK: 0.901571\n",
      "    encoder         : Lavf60.16.100\n",
      "  Stream #0:0: Video: mjpeg (Baseline), yuvj444p(pc, bt470bg/unknown/unknown), 3000x3000 [SAR 118:118 DAR 1:1], q=2-31, 90k tbr, 90k tbn (attached pic)\n",
      "    Metadata:\n",
      "      comment         : Cover (front)\n",
      "  Stream #0:1: Audio: alac (alac / 0x63616C61), 96000 Hz, stereo, s32p (24 bit), 128 kb/s\n",
      "    Metadata:\n",
      "      encoder         : Lavc60.31.102 alac\n",
      "    Side data:\n",
      "      replaygain: track gain - -7.840000, track peak - 0.000021, album gain - unknown, album peak - unknown, \n",
      "size=       0kB time=00:00:00.00 bitrate=N/A speed=   0x    \r"
     ]
    },
    {
     "name": "stdout",
     "output_type": "stream",
     "text": [
      ">>>FFMPEG is running\n",
      "\n"
     ]
    },
    {
     "name": "stderr",
     "output_type": "stream",
     "text": [
      "[out#0/ipod @ 0x159f07ff0] video:211kB audio:109589kB subtitle:0kB other streams:0kB global headers:0kB muxing overhead: 0.030513%\n",
      "size=  109834kB time=00:05:25.29 bitrate=2766.0kbits/s speed= 125x    \n",
      "ffmpeg version 6.1.1 Copyright (c) 2000-2023 the FFmpeg developers\n",
      "  built with Apple clang version 15.0.0 (clang-1500.1.0.2.5)\n",
      "  configuration: --prefix=/opt/homebrew/Cellar/ffmpeg/6.1.1_3 --enable-shared --enable-pthreads --enable-version3 --cc=clang --host-cflags= --host-ldflags='-Wl,-ld_classic' --enable-ffplay --enable-gnutls --enable-gpl --enable-libaom --enable-libaribb24 --enable-libbluray --enable-libdav1d --enable-libharfbuzz --enable-libjxl --enable-libmp3lame --enable-libopus --enable-librav1e --enable-librist --enable-librubberband --enable-libsnappy --enable-libsrt --enable-libssh --enable-libsvtav1 --enable-libtesseract --enable-libtheora --enable-libvidstab --enable-libvmaf --enable-libvorbis --enable-libvpx --enable-libwebp --enable-libx264 --enable-libx265 --enable-libxml2 --enable-libxvid --enable-lzma --enable-libfontconfig --enable-libfreetype --enable-frei0r --enable-libass --enable-libopencore-amrnb --enable-libopencore-amrwb --enable-libopenjpeg --enable-libopenvino --enable-libspeex --enable-libsoxr --enable-libzmq --enable-libzimg --disable-libjack --disable-indev=jack --enable-videotoolbox --enable-audiotoolbox --enable-neon\n",
      "  libavutil      58. 29.100 / 58. 29.100\n",
      "  libavcodec     60. 31.102 / 60. 31.102\n",
      "  libavformat    60. 16.100 / 60. 16.100\n",
      "  libavdevice    60.  3.100 / 60.  3.100\n",
      "  libavfilter     9. 12.100 /  9. 12.100\n",
      "  libswscale      7.  5.100 /  7.  5.100\n",
      "  libswresample   4. 12.100 /  4. 12.100\n",
      "  libpostproc    57.  3.100 / 57.  3.100\n",
      "Input #0, flac, from '/Users/prld/gPrld/Music/Men I Trust/[2023] Live at RBC Echo Beach (ALAC)/3. Men I Trust - Seven (Live at RBC Echo Beach)  [USJ5G2333303].flac':\n",
      "  Metadata:\n",
      "    title           : Seven (Live at RBC Echo Beach)\n",
      "    album           : Live at RBC Echo Beach\n",
      "    album_artist    : Khruangbin\n",
      "    artist          : Men I Trust\n",
      "    track           : 3\n",
      "    disc            : 1\n",
      "    totaltracks     : 9\n",
      "    totaldiscs      : 1\n",
      "    date            : 2023-08-11\n",
      "    copyright       : 2023 Dead Oceans, in association with Night Time Stories, Ltd\n",
      "    Rating          : Clean\n",
      "    isrc            : USJ5G2333303\n",
      "    UPC             : 656605163369\n",
      "    Drums           : Eric Maillet\n",
      "    Guitar          : Jessy Caron;Alexis Taillon-Pellerin;Emmanuelle Proulx\n",
      "    Keyboards       : Dragos Chiriac\n",
      "    Music Publisher : Copyright Control\n",
      "    Vocalist        : Emmanuelle Proulx;Jessy Caron\n",
      "    Writer          : Jessy Caron;Emmanuelle Proulx;Dragos Chiriac\n",
      "    lyrics          : [00:22.99]In the shadows he saw four eyes, lit by fire, fire\n",
      "                    : [00:32.43]He'd never done that with a lover before, before\n",
      "                    : [00:41.68]Meanwhile everyone else got lost in quiet\n",
      "                    : [00:47.16]By the river\n",
      "                    : [00:51.36]Seeking for more, of course he found better\n",
      "                    : [00:55.08]\n",
      "                    : [00:58.43]He saw them, they saw him\n",
      "                    : [01:01.66]But everyone just kept on going\n",
      "                    : [01:04.79]\n",
      "                    : [01:08.14]What he saw was different\n",
      "                    : [01:11.00]He should have gone to bed\n",
      "                    : [01:13.47]But instead he stuck around for the mood\n",
      "                    : [01:16.85]\n",
      "                    : [01:19.48]In the shadows he saw four eyes, lit by fire, fire\n",
      "                    : [01:29.51]He'd never done that with a lover before, before\n",
      "                    : [01:35.82]\n",
      "                    : [01:38.69]Either early or late, it was number seven\n",
      "                    : [01:44.16]And it happened\n",
      "                    : [01:48.51]High like a bird with his beak through the window\n",
      "                    : [01:52.73]\n",
      "                    : [01:55.53]He saw them, they saw him\n",
      "                    : [01:58.41]But everyone just kept on going\n",
      "                    : [02:01.60]\n",
      "                    : [02:05.07]What he saw was different\n",
      "                    : [02:07.90]He should have gone to bed\n",
      "                    : [02:10.50]But instead he stuck around for the mood\n",
      "                    : [02:14.79]He saw them, they saw him\n",
      "                    : [02:17.52]But everyone just kept on going\n",
      "                    : [02:20.77]\n",
      "                    : [02:24.14]What he saw was different\n",
      "                    : [02:27.09]He should have gone to bed\n",
      "                    : [02:29.46]But instead he stuck around for the mood\n",
      "                    : [02:32.54]\n",
      "    REPLAYGAIN_TRACK_GAIN: -7.84\n",
      "    REPLAYGAIN_TRACK_PEAK: 0.901571\n",
      "  Duration: 00:04:08.37, start: 0.000000, bitrate: 2365 kb/s\n",
      "  Stream #0:0: Audio: flac, 96000 Hz, stereo, s32 (24 bit)\n",
      "    Side data:\n",
      "      replaygain: track gain - -7.840000, track peak - 0.000021, album gain - unknown, album peak - unknown, \n",
      "  Stream #0:1: Video: mjpeg (Baseline), yuvj444p(pc, bt470bg/unknown/unknown), 3000x3000 [SAR 118:118 DAR 1:1], 90k tbr, 90k tbn (attached pic)\n",
      "    Metadata:\n",
      "      comment         : Cover (front)\n",
      "Stream mapping:\n",
      "  Stream #0:1 -> #0:0 (copy)\n",
      "  Stream #0:0 -> #0:1 (flac (native) -> alac (native))\n",
      "Press [q] to stop, [?] for help\n",
      "[alac @ 0x14ef08c60] encoding as 24 bits-per-sample\n",
      "Output #0, ipod, to '/Users/prld/gPrld/Music/Men I Trust/[2023] Live at RBC Echo Beach (ALAC)/3. Men I Trust - Seven (Live at RBC Echo Beach)  [USJ5G2333303].m4a':\n",
      "  Metadata:\n",
      "    title           : Seven (Live at RBC Echo Beach)\n",
      "    album           : Live at RBC Echo Beach\n",
      "    album_artist    : Khruangbin\n",
      "    artist          : Men I Trust\n",
      "    track           : 3\n",
      "    disc            : 1\n",
      "    totaltracks     : 9\n",
      "    totaldiscs      : 1\n",
      "    date            : 2023-08-11\n",
      "    copyright       : 2023 Dead Oceans, in association with Night Time Stories, Ltd\n",
      "    Rating          : Clean\n",
      "    isrc            : USJ5G2333303\n",
      "    UPC             : 656605163369\n",
      "    Drums           : Eric Maillet\n",
      "    Guitar          : Jessy Caron;Alexis Taillon-Pellerin;Emmanuelle Proulx\n",
      "    Keyboards       : Dragos Chiriac\n",
      "    Music Publisher : Copyright Control\n",
      "    Vocalist        : Emmanuelle Proulx;Jessy Caron\n",
      "    Writer          : Jessy Caron;Emmanuelle Proulx;Dragos Chiriac\n",
      "    lyrics          : [00:22.99]In the shadows he saw four eyes, lit by fire, fire\n",
      "                    : [00:32.43]He'd never done that with a lover before, before\n",
      "                    : [00:41.68]Meanwhile everyone else got lost in quiet\n",
      "                    : [00:47.16]By the river\n",
      "                    : [00:51.36]Seeking for more, of course he found better\n",
      "                    : [00:55.08]\n",
      "                    : [00:58.43]He saw them, they saw him\n",
      "                    : [01:01.66]But everyone just kept on going\n",
      "                    : [01:04.79]\n",
      "                    : [01:08.14]What he saw was different\n",
      "                    : [01:11.00]He should have gone to bed\n",
      "                    : [01:13.47]But instead he stuck around for the mood\n",
      "                    : [01:16.85]\n",
      "                    : [01:19.48]In the shadows he saw four eyes, lit by fire, fire\n",
      "                    : [01:29.51]He'd never done that with a lover before, before\n",
      "                    : [01:35.82]\n",
      "                    : [01:38.69]Either early or late, it was number seven\n",
      "                    : [01:44.16]And it happened\n",
      "                    : [01:48.51]High like a bird with his beak through the window\n",
      "                    : [01:52.73]\n",
      "                    : [01:55.53]He saw them, they saw him\n",
      "                    : [01:58.41]But everyone just kept on going\n",
      "                    : [02:01.60]\n",
      "                    : [02:05.07]What he saw was different\n",
      "                    : [02:07.90]He should have gone to bed\n",
      "                    : [02:10.50]But instead he stuck around for the mood\n",
      "                    : [02:14.79]He saw them, they saw him\n",
      "                    : [02:17.52]But everyone just kept on going\n",
      "                    : [02:20.77]\n",
      "                    : [02:24.14]What he saw was different\n",
      "                    : [02:27.09]He should have gone to bed\n",
      "                    : [02:29.46]But instead he stuck around for the mood\n",
      "                    : [02:32.54]\n",
      "    REPLAYGAIN_TRACK_GAIN: -7.84\n",
      "    REPLAYGAIN_TRACK_PEAK: 0.901571\n",
      "    encoder         : Lavf60.16.100\n",
      "  Stream #0:0: Video: mjpeg (Baseline), yuvj444p(pc, bt470bg/unknown/unknown), 3000x3000 [SAR 118:118 DAR 1:1], q=2-31, 90k tbr, 90k tbn (attached pic)\n",
      "    Metadata:\n",
      "      comment         : Cover (front)\n",
      "  Stream #0:1: Audio: alac (alac / 0x63616C61), 96000 Hz, stereo, s32p (24 bit), 128 kb/s\n",
      "    Metadata:\n",
      "      encoder         : Lavc60.31.102 alac\n",
      "    Side data:\n",
      "      replaygain: track gain - -7.840000, track peak - 0.000021, album gain - unknown, album peak - unknown, \n",
      "size=       0kB time=00:00:00.00 bitrate=N/A speed=   0x    \r"
     ]
    },
    {
     "name": "stdout",
     "output_type": "stream",
     "text": [
      ">>>FFMPEG is running\n",
      "\n"
     ]
    },
    {
     "name": "stderr",
     "output_type": "stream",
     "text": [
      "[out#0/ipod @ 0x14ef06770] video:211kB audio:79960kB subtitle:0kB other streams:0kB global headers:0kB muxing overhead: 0.032483%\n",
      "size=   80197kB time=00:04:08.36 bitrate=2645.2kbits/s speed= 113x    \n"
     ]
    }
   ],
   "source": [
    "# CONVEERTER FLAC > ALAC\n",
    "#os.listdir(folder)\n",
    "for file in os.listdir(folder):\n",
    "    if (\".jpg\" in file) or (\".pdf\" in file) or (\".DS_Store\" in file):\n",
    "        pass\n",
    "    else:\n",
    "        codc = \"alac\"\n",
    "        default_filename = folder+\"/\"+file\n",
    "        title = file.split('.flac')[0]\n",
    "        new_filename = folder+\"/\"+title+\".m4a\"\n",
    "        \n",
    "        ffmpeg_command = 'ffmpeg -i \"{0}\" -c:v copy -c:a {1} \"{2}\"'.format(default_filename,codc,new_filename)\n",
    "        print('>>>FFMPEG is running\\n')\n",
    "        subprocess.run(ffmpeg_command, shell=True)"
   ]
  },
  {
   "cell_type": "code",
   "execution_count": 90,
   "metadata": {},
   "outputs": [
    {
     "data": {
      "text/plain": [
       "['8. Khruangbin - Evan Finds the Third Room (Live at RBC Echo Beach)  [USJ5G2333308].m4a',\n",
       " '.DS_Store',\n",
       " '2. Men I Trust - All Night (Live at RBC Echo Beach)  [USJ5G2333302].m4a',\n",
       " '1. Men I Trust - Sugar (Live at RBC Echo Beach)  [USJ5G2333301].m4a',\n",
       " '4. Men I Trust - Show Me How (Live at RBC Echo Beach)  [USJ5G2333304].m4a',\n",
       " '3. Men I Trust - Seven (Live at RBC Echo Beach)  [USJ5G2333303].m4a',\n",
       " '9. Khruangbin - White Gloves (Live at RBC Echo Beach)  [USJ5G2333309].m4a',\n",
       " 'cover.jpg',\n",
       " '6. Khruangbin - Dern Kala (Live at RBC Echo Beach)  [USJ5G2333306].m4a',\n",
       " '5. Men I Trust - Say Can You Hear (Live at RBC Echo Beach)  [USJ5G2333305].m4a',\n",
       " '7. Khruangbin - Lady and Man (Live at RBC Echo Beach)  [USJ5G2333307].m4a']"
      ]
     },
     "execution_count": 90,
     "metadata": {},
     "output_type": "execute_result"
    }
   ],
   "source": [
    "test = os.listdir(folder)\n",
    "test"
   ]
  },
  {
   "cell_type": "code",
   "execution_count": 92,
   "metadata": {},
   "outputs": [],
   "source": [
    "def title_extract(file):\n",
    "    out = \"\"\n",
    "    \n",
    "    #* Mac Miller\n",
    "    name = \"Men I Trust\"\n",
    "    t1 = file.split('. '+name+' - ')\n",
    "    out+=t1[0]+\" \"\n",
    "    out+= t1[1].split('  [')[0]\n",
    "    out+=\".m4a\"\n",
    "    \n",
    "    return out\n",
    "\n",
    "def rename_folder(folder):\n",
    "    L = []\n",
    "    fold = os.listdir(folder)\n",
    "    for file in fold:\n",
    "        if (\".jpg\" in file) or (\".pdf\" in file) or (\".DS_Store\" in file):\n",
    "            pass\n",
    "        else:\n",
    "            try:\n",
    "                new_name = title_extract(file)\n",
    "                try:\n",
    "                    os.rename(folder+\"/\"+file,folder+\"/\"+new_name)\n",
    "                except:\n",
    "                    print(title)\n",
    "            except:\n",
    "                print(file)\n",
    "    return \"OK\"\n",
    "        "
   ]
  },
  {
   "cell_type": "code",
   "execution_count": 93,
   "metadata": {},
   "outputs": [
    {
     "name": "stdout",
     "output_type": "stream",
     "text": [
      "8. Khruangbin - Evan Finds the Third Room (Live at RBC Echo Beach)  [USJ5G2333308].m4a\n",
      "9. Khruangbin - White Gloves (Live at RBC Echo Beach)  [USJ5G2333309].m4a\n",
      "6. Khruangbin - Dern Kala (Live at RBC Echo Beach)  [USJ5G2333306].m4a\n",
      "7. Khruangbin - Lady and Man (Live at RBC Echo Beach)  [USJ5G2333307].m4a\n"
     ]
    },
    {
     "data": {
      "text/plain": [
       "'OK'"
      ]
     },
     "execution_count": 93,
     "metadata": {},
     "output_type": "execute_result"
    }
   ],
   "source": [
    "rename_folder(folder)"
   ]
  }
 ],
 "metadata": {
  "kernelspec": {
   "display_name": "ytmusic",
   "language": "python",
   "name": "python3"
  },
  "language_info": {
   "codemirror_mode": {
    "name": "ipython",
    "version": 3
   },
   "file_extension": ".py",
   "mimetype": "text/x-python",
   "name": "python",
   "nbconvert_exporter": "python",
   "pygments_lexer": "ipython3",
   "version": "3.10.13"
  }
 },
 "nbformat": 4,
 "nbformat_minor": 2
}
